Coordinates
version=1
nRows=5
nColumns=40
inDegrees=yes

Units are S.I. units (second, meters, Newtons, ...)
Angles are in degrees.

endheader
time	pelvis_tilt	pelvis_list	pelvis_rotation	pelvis_tx	pelvis_ty	pelvis_tz	hip_flexion_r	hip_adduction_r	hip_rotation_r	knee_angle_r	knee_angle_r_beta	ankle_angle_r	subtalar_angle_r	mtp_angle_r	hip_flexion_l	hip_adduction_l	hip_rotation_l	knee_angle_l	knee_angle_l_beta	ankle_angle_l	subtalar_angle_l	mtp_angle_l	lumbar_extension	lumbar_bending	lumbar_rotation	arm_flex_r	arm_add_r	arm_rot_r	elbow_flex_r	pro_sup_r	wrist_flex_r	wrist_dev_r	arm_flex_l	arm_add_l	arm_rot_l	elbow_flex_l	pro_sup_l	wrist_flex_l	wrist_dev_l
     38.96250000	     -7.90768924	     -4.03704134	      5.05348746	      0.94258887	      0.92056927	      0.46858399	      3.73390060	     -2.06570416	    -12.86108050	     20.70586692	     20.70586692	     16.08588587	     -3.27573100	     -3.51086952	     27.34249910	     -4.77166276	      1.65839809	     23.89030903	     23.89030903	      7.06500433	    -10.90313796	      0.29335105	     -7.57684554	      2.28413932	      2.56779338	     45.31074518	    -14.21032981	    -16.47824733	     82.35909803	     45.14266023	      0.00000000	      0.00000000	     -1.93081517	    -10.11251679	     10.52713534	     31.12987661	     44.64835011	      0.00000000	      0.00000000
     38.98000000	     -7.84022345	     -4.17195031	      4.57427472	      0.94393912	      0.92155550	      0.46579422	      3.51990914	     -2.21343210	    -12.69524534	     21.10884711	     21.10884711	     15.55873568	     -2.97339357	     -4.04002172	     26.76880105	     -4.88778643	      1.43169239	     23.96372354	     23.96372354	      7.55609903	    -11.15601375	      0.51292863	     -7.54820767	      2.40623115	      2.90512285	     43.49544205	    -14.14199170	    -16.36813342	     80.47072367	     45.19825437	      0.00000000	      0.00000000	     -0.66261553	    -10.48870299	      9.91044341	     31.51428014	     44.77273640	      0.00000000	      0.00000000
     38.99750000	     -7.79471911	     -4.26619456	      4.11190495	      0.94518862	      0.92251463	      0.46305128	      3.36446203	     -2.44322023	    -12.59839236	     21.56482161	     21.56482161	     14.98431700	     -2.54410783	     -4.78527737	     26.19642246	     -4.93973913	      1.26966069	     23.99571794	     23.99571794	      7.98351692	    -11.43310589	      0.82792662	     -7.45967440	      2.43451295	      3.12445073	     41.74723765	    -13.95366894	    -16.33106054	     77.95090895	     45.27601460	      0.00000000	      0.00000000	      0.65901853	    -10.85592017	      9.40704316	     31.65018272	     44.87934879	      0.00000000	      0.00000000
     39.01500000	     -7.65612219	     -4.49421913	      3.71017681	      0.94640184	      0.92346846	      0.46034962	      3.13321534	     -2.48936045	    -12.40585764	     22.04703080	     22.04703080	     14.56389740	     -2.30903369	     -4.94179689	     25.59838815	     -5.12456428	      1.15372734	     24.11529422	     24.11529422	      8.35256022	    -11.71202416	      0.81606617	     -7.56633204	      2.74431085	      2.98574747	     39.82235971	    -13.19586195	    -16.07572643	     76.87099971	     45.29439732	      0.00000000	      0.00000000	      1.85927046	    -11.40661843	      9.23993347	     31.92408565	     44.92233757	      0.00000000	      0.00000000
     39.03250000	     -7.59715037	     -4.47416556	      3.28715806	      0.94747948	      0.92427923	      0.45745170	      2.98089331	     -2.91956811	    -12.48488202	     22.45911603	     22.45911603	     13.30841809	     -1.91884773	     -7.89075104	     25.04865063	     -4.99674701	      1.03765889	     24.24487810	     24.24487810	      9.10412437	    -12.05374074	      2.00058786	     -7.31865129	      2.68794610	      2.76372824	     39.07523206	    -12.81998234	    -15.65736468	     70.66550091	     45.48368650	      0.00000000	      0.00000000	      3.52437365	    -11.56238202	      8.60262276	     30.63362193	     45.07593074	      0.00000000	      0.00000000
